<svg xmlns="http://www.w3.org/2000/svg" viewBox="0 0 96 96" role="img" aria-label="cosmosXmachina cXm mark">
  <defs>
    <radialGradient id="bg" cx="50%" cy="44%" r="64%">
      <stop offset="0" stop-color="#70e4ff"/>
      <stop offset=".24" stop-color="#6742d6"/>
      <stop offset=".58" stop-color="#25104f"/>
      <stop offset="1" stop-color="#0b1026"/>
    </radialGradient>
    <linearGradient id="line" x1="14" y1="10" x2="82" y2="86">
      <stop stop-color="#70e4ff"/>
      <stop offset=".48" stop-color="#7a34d8"/>
      <stop offset="1" stop-color="#3f86e8"/>
    </linearGradient>
    <filter id="glow" x="-40%" y="-40%" width="180%" height="180%">
      <feGaussianBlur stdDeviation="2.2" result="b"/>
      <feMerge>
        <feMergeNode in="b"/>
        <feMergeNode in="SourceGraphic"/>
      </feMerge>
    </filter>
  </defs>
  <circle cx="48" cy="48" r="45" fill="url(#bg)"/>
  <circle cx="48" cy="48" r="44" fill="none" stroke="#70e4ff" stroke-opacity=".44"/>
  <circle cx="48" cy="48" r="35" fill="none" stroke="#7a34d8" stroke-opacity=".38" stroke-dasharray="2 4"/>
  <circle cx="48" cy="48" r="27" fill="none" stroke="#3f86e8" stroke-opacity=".3"/>
  <g filter="url(#glow)" stroke="url(#line)" stroke-width="1.8" fill="none" stroke-linejoin="round">
    <path d="M48 9 76 48 48 87 20 48Z"/>
    <path d="M48 9 48 87M20 48H76M32 25 64 71M64 25 32 71"/>
    <path d="M48 18 70 58 26 58Z"/>
    <path d="M48 78 70 38 26 38Z"/>
    <path d="M35 35 61 35 74 48 61 61 35 61 22 48Z"/>
  </g>
  <g fill="#f4f1ff" font-family="Inter, Arial, sans-serif" font-weight="900" text-anchor="middle">
    <text x="48" y="53" font-size="20" letter-spacing="-1" paint-order="stroke" stroke="#0b1026" stroke-width="4">cXm</text>
    <text x="48" y="53" font-size="20" letter-spacing="-1" fill="#f4f1ff">cXm</text>
  </g>
  <circle cx="48" cy="48" r="3.3" fill="#70e4ff" filter="url(#glow)"/>
</svg>
